<svg width="14" height="14" viewBox="0 0 14 14" fill="none" xmlns="http://www.w3.org/2000/svg">
<g clip-path="url(#clip0_336_4435)">
<path d="M2.33352 11.667V8.16699C2.33352 6.92932 2.82518 5.74233 3.70035 4.86716C4.57552 3.99199 5.76251 3.50033 7.00018 3.50033C8.23786 3.50033 9.42485 3.99199 10.3 4.86716C11.1752 5.74233 11.6669 6.92932 11.6669 8.16699V11.667H12.2502V12.8337H1.75018V11.667H2.33352ZM3.50018 8.16699H4.66685C4.66685 7.54815 4.91268 6.95466 5.35027 6.51708C5.78785 6.07949 6.38135 5.83366 7.00018 5.83366V4.66699C6.07193 4.66699 5.18169 5.03574 4.52531 5.69212C3.86893 6.3485 3.50018 7.23873 3.50018 8.16699ZM6.41685 1.16699H7.58352V2.91699H6.41685V1.16699ZM11.5374 2.80499L12.3622 3.62983L11.1255 4.86708L10.3001 4.04224L11.5374 2.80499ZM1.63818 3.62983L2.46302 2.80499L3.70027 4.04166L2.87602 4.86766L1.63818 3.62983Z" fill="#FAAD14"/>
</g>
<defs>
<clipPath id="clip0_336_4435">
<rect width="14" height="14" fill="white"/>
</clipPath>
</defs>
</svg>
