<svg width="16" height="16" viewBox="0 0 16 16" fill="none" xmlns="http://www.w3.org/2000/svg">
<g clip-path="url(#clip0_236_974)">
<path d="M14 6.00001V13.9953C14.0006 14.0829 13.984 14.1697 13.951 14.2508C13.9181 14.3319 13.8695 14.4058 13.808 14.4681C13.7466 14.5305 13.6734 14.5801 13.5928 14.6141C13.5121 14.6482 13.4255 14.6661 13.338 14.6667H2.662C2.48654 14.6667 2.31826 14.597 2.19413 14.473C2.07 14.349 2.00018 14.1808 2 14.0053V1.99468C2 1.63668 2.298 1.33334 2.66533 1.33334H9.33333V5.33334C9.33333 5.51015 9.40357 5.67972 9.52859 5.80475C9.65362 5.92977 9.82319 6.00001 10 6.00001H14ZM14 4.66668H10.6667V1.33534L14 4.66668Z" fill="#0070B8"/>
</g>
<defs>
<clipPath id="clip0_236_974">
<rect width="16" height="16" fill="white"/>
</clipPath>
</defs>
</svg>
