<svg width="16" height="16" viewBox="0 0 16 16" fill="none" xmlns="http://www.w3.org/2000/svg">
<g clip-path="url(#clip0_241_1235)">
<path d="M2.00001 14C1.8232 14 1.65363 13.9298 1.52861 13.8047C1.40358 13.6797 1.33334 13.5101 1.33334 13.3333V2.66667C1.33334 2.48986 1.40358 2.32029 1.52861 2.19526C1.65363 2.07024 1.8232 2 2.00001 2H6.94268L8.27601 3.33333H13.3333C13.5102 3.33333 13.6797 3.40357 13.8047 3.5286C13.9298 3.65362 14 3.82319 14 4V6H2.66668V12.664L4.00001 7.33333H15L13.46 13.4953C13.4239 13.6395 13.3406 13.7675 13.2235 13.8589C13.1063 13.9503 12.962 14 12.8133 14H2.00001Z" fill="#FAAD14"/>
</g>
<defs>
<clipPath id="clip0_241_1235">
<rect width="16" height="16" fill="white"/>
</clipPath>
</defs>
</svg>