<svg width="20" height="20" viewBox="0 0 20 20" fill="none" xmlns="http://www.w3.org/2000/svg">
  <path d="M0.833344 10.4166H16.6667V12.0833H0.833344V10.4166Z" fill="#666666"/>
  <path d="M6.25 12.0834H11.25V15.4167H6.25V12.0834Z" fill="#666666"/>
  <path d="M7.91666 15.4166H9.58332V18.75H7.91666V15.4166Z" fill="#666666"/>
  <path d="M1.66666 8.75H4.99999V9.58333H1.66666V8.75Z" fill="#666666"/>
  <path d="M2.5 9.58337H4.16667V10.4167H2.5V9.58337Z" fill="#666666"/>
  <path d="M9.58334 2.08337H18.3333V2.91671H9.58334V2.08337Z" fill="#666666"/>
  <path d="M13.75 7.08337H19.1667V7.91671H13.75V7.08337Z" fill="#666666"/>
  <path d="M14.1667 2.91663L14.1667 11.25L13.3333 11.25L13.3333 2.91663L14.1667 2.91663Z" fill="#666666"/>
  <path d="M9.16666 1.25H11.6667V3.75H9.16666V1.25Z" fill="#666666"/>
  <path d="M15.8333 1.25H18.3333V3.75H15.8333V1.25Z" fill="#666666"/>
  <path d="M15.8333 5.41663H19.1667V8.74996H15.8333V5.41663Z" fill="#666666"/>
  <path d="M5.83334 3.54163C5.83334 3.8868 4.71406 4.16663 3.33334 4.16663C1.95263 4.16663 0.833344 3.8868 0.833344 3.54163C0.833344 3.19645 1.95263 2.91663 3.33334 2.91663C4.71406 2.91663 5.83334 3.19645 5.83334 3.54163Z" fill="#666666"/>
  <path d="M5.83334 4.79163C5.83334 5.1368 4.71406 5.41663 3.33334 5.41663C1.95263 5.41663 0.833344 5.1368 0.833344 4.79163C0.833344 4.44645 1.95263 4.16663 3.33334 4.16663C4.71406 4.16663 5.83334 4.44645 5.83334 4.79163Z" fill="#666666"/>
  <path d="M5.83334 6.04163C5.83334 6.3868 4.71406 6.66663 3.33334 6.66663C1.95263 6.66663 0.833344 6.3868 0.833344 6.04163C0.833344 5.69645 1.95263 5.41663 3.33334 5.41663C4.71406 5.41663 5.83334 5.69645 5.83334 6.04163Z" fill="#666666"/>
  <path d="M5.83334 7.29163C5.83334 7.6368 4.71406 7.91663 3.33334 7.91663C1.95263 7.91663 0.833344 7.6368 0.833344 7.29163C0.833344 6.94645 1.95263 6.66663 3.33334 6.66663C4.71406 6.66663 5.83334 6.94645 5.83334 7.29163Z" fill="#666666"/>
  <path d="M1.66666 3.33337H4.99999V7.50004H1.66666V3.33337Z" fill="#666666"/>
</svg>