<svg width="32" height="27" viewBox="0 0 32 27" fill="none" xmlns="http://www.w3.org/2000/svg">
  <path d="M9.01862 22.2444C9.01862 22.2444 9.63311 25.2419 11.9113 26.2012C13.1927 26.7007 14.7414 26.6058 17.6091 25.4168C20.8989 24.0729 23.0072 26.0588 23.0072 26.0588C23.0072 26.0588 21.366 22.8814 18.6308 22.3718C17.2119 22.0645 16.2877 22.5416 13.5299 23.2785C12.7518 23.5005 11.9301 23.5221 11.1414 23.3413C10.3526 23.1605 9.62239 22.7832 9.01862 22.2444Z" fill="white"/>
  <path d="M26.2121 10.4015C26.2114 13.1172 25.1466 15.7245 23.246 17.6643C21.3455 19.604 18.7605 20.7219 16.0454 20.7781C15.4127 20.7559 14.7919 20.5992 14.2244 20.3185C14.7043 19.9595 15.1584 19.5671 15.5833 19.1444C17.5716 17.1708 18.8257 14.577 19.1379 11.7929C19.1896 11.3284 19.2163 10.8614 19.2178 10.394C19.2234 8.76656 18.9066 7.15409 18.2858 5.64966C17.665 4.14523 16.7524 2.77862 15.6008 1.62868C15.0685 1.0954 14.4891 0.611324 13.8697 0.182353C14.5129 0.0606399 15.166 -0.00041178 15.8206 2.09009e-06C17.1861 1.45886e-06 18.5382 0.269117 19.7996 0.791966C21.061 1.31481 22.207 2.08114 23.172 3.04714C24.1371 4.01315 24.9023 5.15988 25.424 6.42179C25.9456 7.6837 26.2134 9.03605 26.2121 10.4015Z" fill="white"/>
  <path d="M17.2195 10.3918C17.2159 12.0926 16.7955 13.7665 15.9951 15.2672C15.1947 16.7678 14.0387 18.0494 12.6282 18.9998C12.3784 19.1622 12.1436 19.312 11.8788 19.4519C12.0632 19.1909 12.23 18.9181 12.3784 18.6351C13.2402 16.9535 13.445 15.0114 12.953 13.187C12.5235 11.6092 11.5973 10.2118 10.3114 9.20169C9.02547 8.1916 7.44838 7.62264 5.81378 7.5791C6.21472 6.15481 6.91472 4.83236 7.86709 3.69994C8.81945 2.56752 10.0023 1.65116 11.3368 1.01196C13.1014 1.86244 14.5898 3.19414 15.6306 4.85365C16.6714 6.51316 17.2222 8.43294 17.2195 10.3918Z" fill="white"/>
  <path d="M9.98542 11.6675L9.84553 11.6949C8.59502 11.965 7.47447 12.6546 6.66979 13.6492C5.86512 14.6438 5.4247 15.8836 5.42163 17.163C5.42016 18.4352 5.85481 19.6695 6.65313 20.6601C6.4763 20.694 6.29789 20.719 6.11856 20.7351C5.9537 20.75 5.78883 20.755 5.61897 20.755C4.5321 20.7637 3.46652 20.4537 2.55397 19.8633C1.5504 19.2137 0.781364 18.2597 0.359623 17.1412C-0.0621178 16.0226 -0.114368 14.7983 0.210535 13.6479C0.535437 12.4975 1.2204 11.4814 2.16497 10.7487C3.10954 10.016 4.26402 9.60527 5.4591 9.57666H5.62896C6.46535 9.57658 7.29107 9.76443 8.04511 10.1263C8.79915 10.4882 9.46225 11.0149 9.98542 11.6675Z" fill="white"/>
  <path d="M31.9999 16.3067C31.9999 17.4992 31.5262 18.6429 30.683 19.4861C29.8398 20.3293 28.6961 20.8031 27.5036 20.8031H22.5676C23.2943 20.3298 23.9699 19.7823 24.5835 19.1694C26.5616 17.2011 27.8108 14.6181 28.1256 11.8453C29.2013 11.9956 30.1863 12.5302 30.8985 13.3503C31.6107 14.1704 32.0019 15.2205 31.9999 16.3067Z" fill="white"/>
</svg>