<svg width="16" height="16" viewBox="0 0 16 16" fill="none" xmlns="http://www.w3.org/2000/svg">
<path d="M8 14.6668C4.3181 14.6668 1.33333 11.682 1.33333 8.00016C1.33333 4.31826 4.3181 1.3335 8 1.3335C11.6819 1.3335 14.6667 4.31826 14.6667 8.00016C14.6667 11.682 11.6819 14.6668 8 14.6668ZM8 13.3335C10.9455 13.3335 13.3333 10.9457 13.3333 8.00016C13.3333 5.05464 10.9455 2.66683 8 2.66683C5.05448 2.66683 2.66667 5.05464 2.66667 8.00016C2.66667 10.9457 5.05448 13.3335 8 13.3335ZM7.33333 10.0002H8.66667V11.3335H7.33333V10.0002ZM8.66667 8.90356V9.3335H7.33333V8.3335C7.33333 7.9653 7.6318 7.66683 8 7.66683C8.55227 7.66683 9 7.2191 9 6.66683C9 6.11454 8.55227 5.66683 8 5.66683C7.51487 5.66683 7.1104 6.01232 7.0192 6.47068L5.71154 6.20914C5.92425 5.13962 6.868 4.3335 8 4.3335C9.28867 4.3335 10.3333 5.37816 10.3333 6.66683C10.3333 7.72383 9.63047 8.6167 8.66667 8.90356Z" fill="#999999"/>
</svg>
