<svg width="24" height="24" viewBox="0 0 24 24" fill="none" xmlns="http://www.w3.org/2000/svg">
<path d="M13.5 19C13.5 19.8284 12.8284 20.5 12 20.5C11.1716 20.5 10.5 19.8284 10.5 19C10.5 18.1716 11.1716 17.5 12 17.5C12.8284 17.5 13.5 18.1716 13.5 19Z" fill="#333333"/>
<path fill-rule="evenodd" clip-rule="evenodd" d="M5.87705 5.21793C7.81826 4.41385 9.89884 4 12 4C14.1011 4 16.1817 4.41385 18.1229 5.21793C20.0641 6.022 21.828 7.20055 23.3137 8.68629L21.8995 10.1005C20.5995 8.80048 19.0561 7.76925 17.3576 7.06569C15.659 6.36212 13.8385 6 12 6C10.1615 6 8.34098 6.36212 6.64242 7.06569C4.94386 7.76925 3.40051 8.80049 2.10049 10.1005L0.686279 8.6863C2.17202 7.20056 3.93584 6.02201 5.87705 5.21793Z" fill="#333333"/>
<path fill-rule="evenodd" clip-rule="evenodd" d="M9.32126 13.5328C10.1705 13.1811 11.0808 13 12 13C12.9193 13 13.8295 13.1811 14.6788 13.5328C15.5281 13.8846 16.2998 14.4002 16.9498 15.0503L15.5356 16.4645C15.0713 16.0002 14.5201 15.6319 13.9135 15.3806C13.3068 15.1293 12.6567 15 12 15C11.3434 15 10.6933 15.1293 10.0866 15.3806C9.48 15.6319 8.9288 16.0002 8.46451 16.4645L7.05029 15.0503C7.7003 14.4002 8.47198 13.8846 9.32126 13.5328Z" fill="#333333"/>
<path fill-rule="evenodd" clip-rule="evenodd" d="M7.59915 9.37539C8.9944 8.79746 10.4898 8.5 12 8.5C13.5102 8.5 15.0056 8.79746 16.4009 9.37538C17.7961 9.95331 19.0639 10.8004 20.1317 11.8683L18.7175 13.2825C17.8354 12.4003 16.7881 11.7006 15.6355 11.2231C14.4829 10.7457 13.2476 10.5 12 10.5C10.7525 10.5 9.51712 10.7457 8.36452 11.2231C7.21193 11.7006 6.16466 12.4003 5.2825 13.2825L3.86829 11.8683C4.93616 10.8004 6.20391 9.95332 7.59915 9.37539Z" fill="#333333"/>
</svg>
