<svg width="18" height="18" viewBox="0 0 18 18" fill="none" xmlns="http://www.w3.org/2000/svg">
<path d="M9.75 13.875V10.125H8.25V13.875H9.75Z" fill="#969799"/>
<path fill-rule="evenodd" clip-rule="evenodd" d="M4.875 5.25C4.875 2.97183 6.72183 1.125 9 1.125C11.2782 1.125 13.125 2.97183 13.125 5.25V7.125H15.75C16.1642 7.125 16.5 7.46079 16.5 7.875V16.125C16.5 16.5392 16.1642 16.875 15.75 16.875H2.25C1.83579 16.875 1.5 16.5392 1.5 16.125V7.875C1.5 7.46079 1.83579 7.125 2.25 7.125H4.875V5.25ZM11.625 5.25V7.125H6.375V5.25C6.375 3.80025 7.55025 2.625 9 2.625C10.4497 2.625 11.625 3.80025 11.625 5.25ZM3 8.625V15.375H15V8.625H3Z" fill="#969799"/>
</svg>