<svg width="18" height="18" viewBox="0 0 18 18" fill="none" xmlns="http://www.w3.org/2000/svg">
<g clip-path="url(#clip0_13_20)">
<path d="M15 16.75H13.5V15.25C13.5 14.6533 13.2629 14.081 12.841 13.659C12.419 13.2371 11.8467 13 11.25 13H6.75C6.15326 13 5.58097 13.2371 5.15901 13.659C4.73705 14.081 4.5 14.6533 4.5 15.25V16.75H3V15.25C3 14.2554 3.39509 13.3016 4.09835 12.5983C4.80161 11.8951 5.75544 11.5 6.75 11.5H11.25C12.2446 11.5 13.1984 11.8951 13.9017 12.5983C14.6049 13.3016 15 14.2554 15 15.25V16.75ZM9 10C8.40905 10 7.82389 9.8836 7.27793 9.65746C6.73196 9.43131 6.23588 9.09984 5.81802 8.68198C5.40016 8.26412 5.06869 7.76804 4.84254 7.22208C4.6164 6.67611 4.5 6.09095 4.5 5.5C4.5 4.90905 4.6164 4.32389 4.84254 3.77792C5.06869 3.23196 5.40016 2.73588 5.81802 2.31802C6.23588 1.90016 6.73196 1.56869 7.27793 1.34254C7.82389 1.1164 8.40905 1 9 1C10.1935 1 11.3381 1.47411 12.182 2.31802C13.0259 3.16193 13.5 4.30653 13.5 5.5C13.5 6.69347 13.0259 7.83807 12.182 8.68198C11.3381 9.52589 10.1935 10 9 10ZM9 8.5C9.79565 8.5 10.5587 8.18393 11.1213 7.62132C11.6839 7.05871 12 6.29565 12 5.5C12 4.70435 11.6839 3.94129 11.1213 3.37868C10.5587 2.81607 9.79565 2.5 9 2.5C8.20435 2.5 7.44129 2.81607 6.87868 3.37868C6.31607 3.94129 6 4.70435 6 5.5C6 6.29565 6.31607 7.05871 6.87868 7.62132C7.44129 8.18393 8.20435 8.5 9 8.5Z" fill="#969799"/>
</g>
<defs>
<clipPath id="clip0_13_20">
<rect width="18" height="18" fill="white"/>
</clipPath>
</defs>
</svg>
