<svg width="18" height="18" viewBox="0 0 18 18" fill="none" xmlns="http://www.w3.org/2000/svg">
<path d="M3.99999 14H14V3.99996H3.99999V14ZM10.6667 15.6666H7.33332V17.3333H5.66666V15.6666H3.16666C2.70642 15.6666 2.33332 15.2935 2.33332 14.8333V12.3333H0.666656V10.6666H2.33332V7.33329H0.666656V5.66663H2.33332V3.16663C2.33332 2.70639 2.70642 2.33329 3.16666 2.33329H5.66666V0.666626H7.33332V2.33329H10.6667V0.666626H12.3333V2.33329H14.8333C15.2936 2.33329 15.6667 2.70639 15.6667 3.16663V5.66663H17.3333V7.33329H15.6667V10.6666H17.3333V12.3333H15.6667V14.8333C15.6667 15.2935 15.2936 15.6666 14.8333 15.6666H12.3333V17.3333H10.6667V15.6666ZM5.66666 5.66663H12.3333V12.3333H5.66666V5.66663Z" fill="#333333"/>
</svg>
