<svg width="20" height="20" viewBox="0 0 20 20" fill="none" xmlns="http://www.w3.org/2000/svg">
<path fill-rule="evenodd" clip-rule="evenodd" d="M2.91666 8.74996C2.91666 8.28972 3.28975 7.91663 3.74999 7.91663H16.25C16.7102 7.91663 17.0833 8.28972 17.0833 8.74996V17.9166C17.0833 18.3769 16.7102 18.75 16.25 18.75H3.74999C3.28975 18.75 2.91666 18.3769 2.91666 17.9166V8.74996ZM4.58332 9.58329V17.0833H15.4167V9.58329H4.58332Z" fill="#333333"/>
<path fill-rule="evenodd" clip-rule="evenodd" d="M5 1.25H15V9.58333H5V1.25ZM6.66667 2.91667V7.91667H13.3333V2.91667H6.66667Z" fill="#333333"/>
<path d="M9.16666 16.6666L9.16666 12.9166L12.0833 12.9166L9.16666 16.6666Z" fill="#333333"/>
<path d="M10.8333 10L10.8333 13.75L7.91667 13.75L10.8333 10Z" fill="#333333"/>
</svg>
