<svg width="20" height="20" viewBox="0 0 20 20" fill="none" xmlns="http://www.w3.org/2000/svg">
<path fill-rule="evenodd" clip-rule="evenodd" d="M2.91666 8.74996C2.91666 8.28972 3.28975 7.91663 3.74999 7.91663H16.25C16.7102 7.91663 17.0833 8.28972 17.0833 8.74996V17.9166C17.0833 18.3769 16.7102 18.75 16.25 18.75H3.74999C3.28975 18.75 2.91666 18.3769 2.91666 17.9166V8.74996ZM4.58332 9.58329V17.0833H15.4167V9.58329H4.58332Z" fill="#333333"/>
<path fill-rule="evenodd" clip-rule="evenodd" d="M5 1.25H15V9.58333H5V1.25ZM6.66667 2.91667V7.91667H13.3333V2.91667H6.66667Z" fill="#333333"/>
<path d="M7.91666 4.16663H9.58332V6.66663H7.91666V4.16663Z" fill="#333333"/>
<path d="M10.4167 4.16663H12.0833V6.66663H10.4167V4.16663Z" fill="#333333"/>
</svg>
