<svg width="20" height="20" viewBox="0 0 20 20" fill="none" xmlns="http://www.w3.org/2000/svg">
<path fill-rule="evenodd" clip-rule="evenodd" d="M16.25 1.25C16.7102 1.25 17.0833 1.6231 17.0833 2.08333V17.9167C17.0833 18.3769 16.7102 18.75 16.25 18.75H3.75001C3.28977 18.75 2.91667 18.3769 2.91667 17.9167V5.37479C2.91667 5.15377 3.00447 4.94181 3.16075 4.78553L6.69628 1.25H16.25ZM15.4167 17.0833V2.91667H7.38664L4.58334 5.71997V17.0833H15.4167ZM9.16667 5H7.50001V7.5H9.16667V5ZM10 4.16667H11.6667V7.5H10V4.16667ZM14.1667 4.16667H12.5V7.5H14.1667V4.16667Z" fill="#333333"/>
</svg>
