<svg width="20" height="20" viewBox="0 0 20 20" fill="none" xmlns="http://www.w3.org/2000/svg">
<path fill-rule="evenodd" clip-rule="evenodd" d="M2.91668 2.08333C2.91668 1.6231 3.28977 1.25 3.75001 1.25H13.3037L16.8393 4.78553C16.9955 4.94181 17.0833 5.15377 17.0833 5.37479V17.9167C17.0833 18.3769 16.7102 18.75 16.25 18.75H3.75001C3.28977 18.75 2.91668 18.3769 2.91668 17.9167V2.08333ZM4.58334 2.91667V17.0833H15.4167V5.71997L12.6134 2.91667H4.58334ZM8.31872 12.9167H11.9639V12.3059H11.9639V12.9167H8.31872V12.9167ZM9.19235 12.3059L10.7695 10.5974C11.0633 10.2752 11.3094 9.96727 11.5078 9.67348C11.7088 9.37712 11.8093 9.04855 11.8093 8.68776C11.8093 8.32697 11.6899 8.01057 11.4512 7.73857C11.6899 8.01057 11.8093 8.32696 11.8093 8.68774C11.8093 9.04853 11.7088 9.3771 11.5078 9.67346C11.3093 9.96724 11.0632 10.2752 10.7695 10.5973L9.19231 12.3059H9.19235ZM8.32258 8.95833H9.02223V8.91581C9.02223 8.5473 9.12788 8.26253 9.3392 8.06152C9.55052 7.86051 9.8108 7.76001 10.12 7.76001C10.3485 7.76001 10.5405 7.81223 10.6961 7.91666C10.5406 7.81224 10.3485 7.76003 10.1201 7.76003C9.81082 7.76003 9.55054 7.86053 9.33922 8.06154C9.12791 8.26255 9.02225 8.54732 9.02225 8.91583V8.95835H8.32258V8.95833ZM7.81872 12.2056V13.4167H12.4639V11.8059H10.3343L11.1369 10.9365L11.1389 10.9343C11.4453 10.5983 11.7073 10.2714 11.9219 9.95374C12.1793 9.574 12.3093 9.14766 12.3093 8.68776C12.3093 8.13257 12.0929 7.64966 11.6875 7.26374C11.2692 6.86018 10.7298 6.67633 10.1201 6.67633C9.49434 6.67633 8.94136 6.87811 8.49564 7.2939L8.49427 7.29518C8.04076 7.72142 7.82258 8.27712 7.82258 8.91583V9.45835H9.52225V8.91583C9.52225 8.64597 9.59643 8.50696 9.68383 8.42382C9.7962 8.31693 9.93058 8.26003 10.1201 8.26003C10.317 8.26003 10.4145 8.31588 10.4771 8.38303L10.4796 8.38567C10.5663 8.4774 10.6096 8.58114 10.6096 8.72642C10.6096 8.88833 10.5675 9.04015 10.4754 9.19059C10.3583 9.379 10.1808 9.60712 9.93344 9.87649L7.81872 12.2056Z" fill="#333333"/>
</svg>
