<svg width="24" height="24" viewBox="0 0 24 24" fill="none" xmlns="http://www.w3.org/2000/svg">
<path fill-rule="evenodd" clip-rule="evenodd" d="M0.5 18C0.5 18.5523 0.947715 19 1.5 19H19.5C20.0523 19 20.5 18.5523 20.5 18V6C20.5 5.44771 20.0523 5 19.5 5H1.5C0.947715 5 0.5 5.44771 0.5 6V18ZM2.5 17V7H18.5V17H2.5Z" fill="#C9C9C9"/>
<path d="M21.5 15H23.5V9H21.5V15Z" fill="#C9C9C9"/>
<path fill-rule="evenodd" clip-rule="evenodd" d="M9.5 8L9.5 13L11.5 13L11.5 8L9.5 8Z" fill="#C9C9C9"/>
<path fill-rule="evenodd" clip-rule="evenodd" d="M9.5 14V16H11.5V14H9.5Z" fill="#C9C9C9"/>
</svg>
