<svg width="16" height="16" viewBox="0 0 16 16" fill="none" xmlns="http://www.w3.org/2000/svg">
<path fill-rule="evenodd" clip-rule="evenodd" d="M10 4.00004C9.63181 4.00004 9.33333 3.70156 9.33333 3.33337C9.33333 2.96518 9.63181 2.66671 10 2.66671C10.3682 2.66671 10.6667 2.96518 10.6667 3.33337C10.6667 3.70156 10.3682 4.00004 10 4.00004ZM10 5.33337C8.89543 5.33337 8 4.43794 8 3.33337C8 2.2288 8.89543 1.33337 10 1.33337C11.1046 1.33337 12 2.2288 12 3.33337C12 4.43794 11.1046 5.33337 10 5.33337Z" fill="white"/>
<path fill-rule="evenodd" clip-rule="evenodd" d="M10 13.3333C9.63181 13.3333 9.33333 13.0348 9.33333 12.6666C9.33333 12.2984 9.63181 12 10 12C10.3682 12 10.6667 12.2984 10.6667 12.6666C10.6667 13.0348 10.3682 13.3333 10 13.3333ZM10 14.6666C8.89543 14.6666 8 13.7712 8 12.6666C8 11.5621 8.89543 10.6666 10 10.6666C11.1046 10.6666 12 11.5621 12 12.6666C12 13.7712 11.1046 14.6666 10 14.6666Z" fill="white"/>
<path fill-rule="evenodd" clip-rule="evenodd" d="M6 8.66667C6.36819 8.66667 6.66667 8.36819 6.66667 8C6.66667 7.63181 6.36819 7.33333 6 7.33333C5.63181 7.33333 5.33333 7.63181 5.33333 8C5.33333 8.36819 5.63181 8.66667 6 8.66667ZM6 10C7.10457 10 8 9.10457 8 8C8 6.89543 7.10457 6 6 6C4.89543 6 4 6.89543 4 8C4 9.10457 4.89543 10 6 10Z" fill="white"/>
<path fill-rule="evenodd" clip-rule="evenodd" d="M8.11382 3.99996C8.04012 3.79144 8.00002 3.56705 8.00002 3.33329C8.00002 3.09954 8.04012 2.87515 8.11382 2.66663H1.33335V3.99996H8.11382ZM11.8862 3.99996H14.6667V2.66663H11.8862C11.9599 2.87515 12 3.09954 12 3.33329C12 3.56705 11.9599 3.79144 11.8862 3.99996Z" fill="white"/>
<path fill-rule="evenodd" clip-rule="evenodd" d="M8.11382 13.3333C8.04012 13.1248 8.00002 12.9004 8.00002 12.6667C8.00002 12.4329 8.04012 12.2085 8.11382 12H1.33335V13.3333H8.11382ZM11.8862 13.3333H14.6667V12H11.8862C11.9599 12.2085 12 12.4329 12 12.6667C12 12.9004 11.9599 13.1248 11.8862 13.3333Z" fill="white"/>
<path fill-rule="evenodd" clip-rule="evenodd" d="M7.88618 8.66671C7.95988 8.45819 7.99998 8.2338 7.99998 8.00004C7.99998 7.76628 7.95988 7.54189 7.88618 7.33337H14.6666V8.66671H7.88618ZM4.11378 8.66671H1.33331V7.33337H4.11378C4.04008 7.54189 3.99998 7.76628 3.99998 8.00004C3.99998 8.2338 4.04008 8.45819 4.11378 8.66671Z" fill="white"/>
</svg>
