<svg width="16" height="16" viewBox="0 0 16 16" fill="none" xmlns="http://www.w3.org/2000/svg">
<path d="M7.99998 2.33333C4.50218 2.33333 1.66665 5.16886 1.66665 8.66667C1.66665 10.6984 2.62273 12.5068 4.11215 13.6667H11.8878C13.3772 12.5068 14.3333 10.6984 14.3333 8.66667C14.3333 5.16886 11.4978 2.33333 7.99998 2.33333ZM0.333313 8.66667C0.333313 4.43248 3.7658 1 7.99998 1C12.2342 1 15.6666 4.43248 15.6666 8.66667C15.6666 11.2192 14.4186 13.4802 12.5023 14.8727L12.3271 15H3.67289L3.49763 14.8727C1.58138 13.4802 0.333313 11.2192 0.333313 8.66667Z" fill="white"/>
<path d="M7.41665 4.83333V3H8.58331V4.83333H7.41665Z" fill="white"/>
<path d="M10.2981 5.54361L11.5944 4.24725L12.4194 5.07221L11.123 6.36857L10.2981 5.54361Z" fill="white"/>
<path d="M13.6666 8.08333H11.8333V9.25H13.6666V8.08333Z" fill="white"/>
<path d="M4.16665 9.25H2.33331V8.08333H4.16665V9.25Z" fill="white"/>
<path d="M3.58056 5.07221L4.87692 6.36857L5.70188 5.54361L4.40552 4.24725L3.58056 5.07221Z" fill="white"/>
<path d="M8.98132 9.14003C8.99358 9.20258 9 9.26723 9 9.33337C9 9.88566 8.55228 10.3334 8 10.3334C7.44772 10.3334 7 9.88566 7 9.33337C7 8.78109 7.44772 8.33337 8 8.33337C8.04396 8.33337 8.08726 8.33621 8.12972 8.34171L9.55054 6.9209L10.3755 7.74586L8.98132 9.14003Z" fill="white"/>
</svg>
