<svg width="16" height="16" viewBox="0 0 16 16" fill="none" xmlns="http://www.w3.org/2000/svg">
<path d="M6.14615 0.666626H9.85386L10.3016 2.45743C10.7858 2.65874 11.2378 2.92151 11.6478 3.23583L13.4239 2.72777L15.2777 5.93873L13.95 7.2225C13.983 7.47724 14 7.73676 14 7.99996C14 8.26313 13.983 8.52262 13.95 8.77734L15.2777 10.0611L13.4239 13.2721L11.6479 12.764C11.2379 13.0784 10.7859 13.3412 10.3016 13.5425L9.85386 15.3333H6.14615L5.69845 13.5425C5.21416 13.3412 4.76219 13.0784 4.35222 12.7641L2.57614 13.2722L0.72229 10.0612L2.04999 8.77742C2.01699 8.52268 2 8.26316 2 7.99996C2 7.73679 2.01699 7.4773 2.04998 7.22258L0.72229 5.93882L2.57614 2.72786L4.35213 3.2359C4.76212 2.92154 5.21413 2.65875 5.69845 2.45743L6.14615 0.666626ZM7.18719 1.99996L6.81992 3.46904L6.47814 3.58688C5.90808 3.78343 5.38745 4.08768 4.94075 4.47583L4.66779 4.71301L3.21032 4.29609L2.39751 5.70392L3.48609 6.75649L3.41778 7.11097C3.36242 7.39825 3.33334 7.69539 3.33334 7.99996C3.33334 8.30455 3.36243 8.60172 3.4178 8.88902L3.48611 9.2435L2.39751 10.2961L3.21032 11.7039L4.66786 11.287L4.94082 11.5242C5.3875 11.9123 5.90811 12.2165 6.47814 12.413L6.81992 12.5309L7.18719 14H8.81282L9.18009 12.5309L9.52187 12.413C10.0919 12.2165 10.6126 11.9122 11.0593 11.5241L11.3322 11.2869L12.7897 11.7038L13.6025 10.296L12.5139 9.24343L12.5822 8.88895C12.6376 8.60167 12.6667 8.30453 12.6667 7.99996C12.6667 7.69537 12.6376 7.3982 12.5822 7.1109L12.5139 6.75642L13.6025 5.70383L12.7897 4.29599L11.3321 4.71294L11.0592 4.47577C10.6125 4.08764 10.0919 3.78342 9.52187 3.58688L9.18009 3.46904L8.81282 1.99996H7.18719Z" fill="white"/>
<path d="M7.99998 9.33337C7.2636 9.33337 6.66665 8.73642 6.66665 8.00004C6.66665 7.26366 7.2636 6.66671 7.99998 6.66671C8.73636 6.66671 9.33331 7.26366 9.33331 8.00004C9.33331 8.73642 8.73636 9.33337 7.99998 9.33337ZM7.99998 10.6667C9.47274 10.6667 10.6666 9.4728 10.6666 8.00004C10.6666 6.52728 9.47274 5.33337 7.99998 5.33337C6.52722 5.33337 5.33331 6.52728 5.33331 8.00004C5.33331 9.4728 6.52722 10.6667 7.99998 10.6667Z" fill="white"/>
</svg>
