<svg width="16" height="16" viewBox="0 0 16 16" fill="none" xmlns="http://www.w3.org/2000/svg">
<path d="M8.66665 0.666626H7.33331V2.66663H8.66665V0.666626Z" fill="white"/>
<path d="M2.33331 8.99996C2.33331 5.87035 4.87037 3.33329 7.99998 3.33329C11.1296 3.33329 13.6666 5.87035 13.6666 8.99996V14H14.6666V15.3333H1.33331V14H2.33331V8.99996ZM12.3333 8.99996C12.3333 6.60673 10.3932 4.66663 7.99998 4.66663C5.60675 4.66663 3.66665 6.60673 3.66665 8.99996V14H12.3333V8.99996Z" fill="white"/>
<path d="M13.6568 2.73362L14.5996 3.67643L13.1854 5.09064L12.2426 4.14784L13.6568 2.73362Z" fill="white"/>
<path d="M2.34314 2.73362L1.40033 3.67643L2.81454 5.09065L3.75735 4.14784L2.34314 2.73362Z" fill="white"/>
<path d="M5 10.6666H6.33333V14H5V10.6666Z" fill="white"/>
</svg>
